<?xml version="1.0" encoding="UTF-8" ?>
<!DOCTYPE svg PUBLIC "-//W3C//DTD SVG 1.1//EN" "http://www.w3.org/Graphics/SVG/1.1/DTD/svg11.dtd">
<svg width="1147pt" height="1147pt" viewBox="0 0 1147 1147" version="1.1" xmlns="http://www.w3.org/2000/svg">
<g id="#ff0040ff">
<path fill="#ff0040" opacity="1.00" d=" M 188.35 98.55 C 279.21 98.34 370.08 98.49 460.95 98.48 C 465.76 99.91 471.84 99.73 475.80 102.75 C 475.44 102.95 474.72 103.35 474.37 103.55 C 476.16 102.61 477.57 104.06 478.85 105.14 C 478.16 104.31 477.48 103.48 476.81 102.65 C 483.12 104.93 488.53 109.06 493.95 112.90 C 500.43 119.83 508.11 125.78 513.34 133.78 C 528.02 153.95 537.98 176.95 550.92 198.19 C 557.10 206.02 563.51 215.15 573.90 217.38 C 675.28 217.50 776.65 217.32 878.02 217.47 C 881.57 218.86 885.44 218.38 889.21 218.42 C 951.96 223.54 1013.74 252.37 1057.22 298.77 C 1093.55 335.39 1117.86 383.73 1127.14 434.22 C 1128.61 442.14 1129.33 450.08 1131.19 457.95 C 1131.47 475.13 1132.40 492.58 1130.16 509.47 C 1128.80 512.88 1129.75 516.71 1129.58 520.30 C 1129.21 519.54 1128.86 518.77 1128.52 518.01 C 1128.18 531.08 1124.32 543.85 1120.90 556.53 C 1104.65 613.94 1067.49 664.80 1018.80 699.06 C 983.87 723.64 942.60 739.67 900.52 744.89 C 896.00 746.62 890.81 744.34 886.37 746.49 C 872.19 746.18 857.70 747.71 843.87 745.03 C 822.20 742.34 801.15 730.53 788.29 712.60 C 773.17 693.83 766.10 670.19 752.41 650.52 C 743.79 638.25 730.46 627.98 715.01 627.55 C 541.68 627.59 368.34 627.55 195.01 627.57 C 192.57 627.54 190.11 627.67 187.69 627.31 C 187.45 625.55 187.47 623.78 187.47 622.03 C 187.58 447.76 187.29 273.47 187.62 99.21 C 188.51 101.35 188.22 103.74 188.38 106.00 C 188.36 274.67 188.38 443.33 188.37 612.00 C 188.37 616.80 188.18 621.62 188.60 626.41 C 191.39 626.64 194.20 626.65 197.01 626.64 C 371.34 626.47 545.68 626.80 720.00 626.48 C 543.64 626.25 367.27 626.52 190.90 626.34 C 188.31 626.75 188.64 623.65 188.61 622.02 C 188.65 456.01 188.61 290.00 188.63 124.00 C 188.57 115.51 188.84 107.02 188.35 98.55 M 309.64 220.64 C 309.41 315.54 309.45 410.46 309.62 505.37 C 417.40 505.82 525.21 505.32 633.00 505.61 C 636.01 507.34 639.62 505.82 642.72 507.14 C 657.06 509.64 669.41 518.41 679.82 528.20 C 691.09 540.54 700.04 554.73 707.88 569.42 C 718.37 587.08 725.89 607.40 741.99 620.98 C 746.08 624.41 751.21 624.63 756.16 625.51 C 793.44 625.56 830.72 625.52 868.00 625.53 C 870.63 625.40 873.35 625.68 875.90 624.81 C 908.97 623.40 941.75 608.88 965.49 585.48 C 984.09 568.42 997.02 545.76 1004.29 521.72 C 1010.16 500.86 1010.96 478.69 1007.76 457.40 C 1003.43 434.39 993.75 412.21 979.09 393.81 C 954.59 362.25 915.66 341.94 876.02 339.43 C 811.99 339.47 747.96 339.42 683.94 339.46 C 665.17 338.26 645.47 334.66 629.89 323.14 C 611.82 310.98 600.80 291.41 591.38 272.32 C 583.94 258.08 577.58 242.59 565.45 231.57 C 558.50 225.12 549.32 221.27 539.98 220.47 C 463.20 220.59 386.41 220.27 309.64 220.64 Z" />
<path fill="#ff0040" opacity="1.00" d=" M 440.53 749.91 C 443.26 737.28 464.70 736.63 468.44 748.95 C 468.65 752.98 468.59 757.03 468.47 761.07 C 466.26 764.04 463.73 767.17 460.12 768.45 C 454.31 768.25 447.30 769.87 442.98 764.89 C 439.18 760.79 440.45 754.97 440.53 749.91 Z" />
<path fill="#ff0040" opacity="1.00" d=" M 257.05 740.62 C 262.48 740.32 267.93 740.54 273.37 740.50 C 276.37 742.63 278.83 746.13 278.51 749.96 C 278.45 781.89 278.62 813.84 278.43 845.77 C 277.19 847.93 277.55 850.41 277.43 852.81 C 274.21 862.62 264.52 870.82 253.96 870.60 C 248.20 872.42 241.98 871.24 236.00 871.57 C 222.24 871.85 207.41 868.81 197.50 858.44 C 185.89 844.90 186.38 825.69 188.54 809.17 C 190.70 800.72 194.86 792.37 201.96 786.96 C 208.26 780.99 217.17 780.18 225.01 777.59 C 233.79 777.35 242.58 777.78 251.36 777.37 C 251.68 767.92 251.33 758.45 251.54 748.99 C 252.19 745.58 253.63 742.05 257.05 740.62 M 218.70 804.70 C 212.46 813.70 212.76 825.44 214.55 835.78 C 216.07 843.64 224.05 849.82 232.03 849.59 C 238.44 850.99 246.97 851.36 251.39 845.54 C 251.34 830.01 251.97 814.39 251.06 798.90 C 240.19 798.81 227.53 796.83 218.70 804.70 Z" />
<path fill="#ff0040" opacity="1.00" d=" M 301.99 740.54 C 305.35 740.41 308.72 740.48 312.09 740.50 C 324.43 743.70 325.46 763.77 313.52 768.42 C 307.66 767.95 300.23 770.50 296.16 764.91 C 292.04 760.54 293.56 754.33 293.45 748.92 C 294.35 744.80 298.21 742.03 301.99 740.54 Z" />
<path fill="#ff0040" opacity="1.00" d=" M 1009.81 776.88 C 1011.48 776.40 1013.23 776.53 1014.96 776.51 C 1053.35 776.59 1091.74 776.38 1130.12 776.61 C 1132.77 780.34 1132.58 785.58 1131.58 789.89 C 1129.03 829.64 1118.66 869.18 1099.01 904.37 C 1085.75 929.73 1067.22 951.91 1046.54 971.54 C 1004.15 1011.48 947.33 1036.31 889.77 1041.05 C 872.63 1041.64 854.96 1042.12 837.96 1040.46 C 832.64 1041.17 827.85 1037.82 822.51 1038.62 C 823.25 1038.24 824.01 1037.89 824.78 1037.56 C 815.17 1038.09 805.94 1035.05 796.76 1032.59 C 723.00 1012.88 659.13 959.09 627.14 889.75 C 610.19 854.69 602.03 816.07 602.51 777.46 C 602.83 777.23 603.46 776.76 603.78 776.53 C 641.51 776.49 679.25 776.53 716.99 776.51 C 719.21 776.60 721.82 775.94 723.55 777.80 C 724.18 808.23 733.66 839.14 752.73 863.37 C 774.49 892.94 808.81 913.08 844.97 918.69 C 899.29 928.07 958.55 901.20 987.54 853.76 C 1002.18 830.88 1010.06 803.82 1009.81 776.88 Z" />
<path fill="#ff0040" opacity="1.00" d=" M 38.89 783.65 C 51.86 777.71 66.17 777.64 80.16 777.56 C 82.10 778.74 83.85 780.21 85.37 781.91 C 85.89 786.62 85.69 791.41 85.46 796.15 C 81.48 802.74 73.71 799.16 67.81 801.47 C 63.77 801.36 59.51 801.10 56.56 804.39 C 56.19 824.26 56.57 844.16 56.37 864.04 C 55.33 866.65 53.61 868.98 51.13 870.39 C 45.80 870.68 40.41 870.72 35.08 870.36 C 32.22 868.52 29.19 865.73 29.45 862.02 C 29.34 843.00 29.44 823.98 29.40 804.96 C 29.99 797.08 31.05 787.85 38.89 783.65 Z" />
<path fill="#ff0040" opacity="1.00" d=" M 125.37 777.65 C 138.29 777.38 151.99 776.34 163.48 783.35 C 175.76 790.76 180.75 806.67 177.75 820.16 C 175.79 828.70 165.93 832.75 157.96 832.52 C 145.00 835.25 131.57 835.85 118.38 837.29 C 117.70 842.97 123.35 846.50 127.68 848.88 C 140.82 853.57 154.42 848.20 167.62 847.71 C 173.31 850.83 171.55 857.74 171.36 863.11 C 168.17 868.70 160.90 868.22 155.57 870.24 C 143.38 872.16 130.39 872.58 118.36 869.70 C 102.98 865.47 91.09 850.80 90.43 834.95 C 87.44 818.81 90.03 799.53 103.03 788.04 C 108.72 781.72 117.44 779.55 125.37 777.65 M 127.78 797.89 C 119.66 800.82 116.64 809.65 115.55 817.29 C 127.57 818.26 139.29 814.60 151.26 814.45 C 157.62 807.70 149.39 796.17 140.96 797.48 C 136.53 796.60 132.23 797.30 127.78 797.89 Z" />
<path fill="#ff0040" opacity="1.00" d=" M 372.61 777.76 C 387.01 777.82 402.70 775.14 415.53 783.29 C 422.57 788.12 425.22 796.91 425.47 804.96 C 425.45 828.67 425.45 852.37 425.47 876.08 C 424.48 880.69 424.39 885.51 422.01 889.78 C 414.66 902.01 400.23 909.28 386.02 908.63 C 379.43 908.30 372.63 909.43 366.22 907.64 C 360.55 907.27 353.62 906.79 349.90 901.92 C 347.46 898.33 348.97 893.81 348.55 889.77 C 349.80 888.25 350.92 886.17 352.83 885.49 C 358.24 885.33 363.86 885.12 368.94 887.35 C 376.97 887.04 385.63 888.95 392.96 884.84 C 396.74 881.56 400.88 877.19 399.28 871.75 C 382.72 871.33 364.98 873.36 350.55 863.58 C 343.95 857.87 338.16 850.81 336.45 842.08 C 335.79 839.62 337.65 836.23 336.36 834.34 C 335.84 835.81 336.96 837.47 335.83 838.82 C 333.39 828.72 333.92 817.98 336.45 808.00 C 339.04 790.58 356.17 779.47 372.61 777.76 M 368.07 803.17 C 363.58 806.39 362.11 811.92 360.70 816.96 C 361.02 824.46 359.33 832.46 363.12 839.36 C 364.89 844.32 369.47 847.50 374.23 849.27 C 382.07 850.36 390.24 851.40 398.01 849.17 C 398.37 848.68 399.09 847.71 399.46 847.22 C 399.45 833.77 399.51 820.32 399.43 806.87 C 399.03 803.15 395.97 800.59 392.62 799.57 C 384.37 799.66 375.24 798.14 368.07 803.17 Z" />
<path fill="#ff0040" opacity="1.00" d=" M 515.03 778.54 C 522.97 777.85 533.38 774.74 539.42 781.92 C 539.75 786.63 539.82 791.39 539.39 796.10 C 537.17 798.39 534.60 801.28 531.05 800.49 C 525.89 799.76 521.17 801.93 516.06 801.53 C 513.82 801.27 512.14 803.11 510.55 804.42 C 510.18 823.97 510.54 843.54 510.38 863.09 C 509.34 871.11 500.18 870.95 494.00 870.58 C 489.36 871.50 484.61 868.08 483.46 863.67 C 483.35 842.58 483.32 821.49 483.47 800.41 C 484.71 796.19 484.43 791.22 487.96 787.99 C 494.61 780.15 505.62 779.28 515.03 778.54 Z" />
<path fill="#ff0040" opacity="1.00" d=" M 299.25 779.08 C 306.21 778.58 316.30 776.08 320.49 783.77 C 320.73 810.12 320.57 836.48 320.57 862.83 C 320.84 866.30 318.06 869.13 315.05 870.40 C 310.35 870.70 305.63 870.59 300.93 870.50 C 296.69 870.16 293.76 866.12 293.61 862.08 C 293.62 837.37 293.58 812.66 293.62 787.95 C 293.79 784.13 295.88 780.88 299.25 779.08 Z" />
<path fill="#ff0040" opacity="1.00" d=" M 447.20 778.91 C 451.72 778.08 456.51 778.72 461.13 778.57 C 464.55 779.83 468.23 782.92 467.55 786.95 C 467.50 813.02 467.64 839.09 467.48 865.16 C 464.93 872.01 456.71 870.45 450.99 870.58 C 446.09 871.58 442.30 867.20 440.58 863.11 C 440.52 838.39 440.58 813.68 440.55 788.96 C 440.17 784.58 442.84 780.10 447.20 778.91 Z" />
</g>
</svg>
